<svg xmlns="http://www.w3.org/2000/svg" width="420" height="150" viewBox="0 0 420 150">
<rect x="0.5" y="0.5" width="419" height="149" rx="8" fill="#161b22" stroke="#30363d"/>
<g transform="translate(20,22)" fill="#58a6ff"><path d="M2 2.5A2.5 2.5 0 014.5 0h8.75a.75.75 0 01.75.75v12.5a.75.75 0 01-.75.75h-2.5a.75.75 0 110-1.5h1.75v-2h-8a1 1 0 00-.714 1.7.75.75 0 01-1.072 1.05A2.495 2.495 0 012 11.5v-9zm10.5-1V9h-8c-.356 0-.694.074-1 .208V2.5a1 1 0 011-1h8z"/></g>
<text x="44" y="35" font-family="-apple-system,Segoe UI,Helvetica,Arial,sans-serif" font-size="16" font-weight="600" fill="#58a6ff">Rustume</text>
<g font-family="-apple-system,Segoe UI,Helvetica,Arial,sans-serif" font-size="13" fill="#8b949e">
<text x="20" y="60">Privacy-first, offline-first résumé builder powered</text>
<text x="20" y="79">by Rust and Typst</text>
</g>
<g font-family="-apple-system,Segoe UI,Helvetica,Arial,sans-serif" font-size="13">
<circle cx="26" cy="126" r="6" fill="#3178c6"/>
<text x="38" y="126" fill="#c9d1d9" dominant-baseline="central">TypeScript</text>
<rect x="131" y="116" width="66" height="20" rx="10" fill="none" stroke="#d29922"/><text x="164" y="126" font-size="12" fill="#d29922" text-anchor="middle" dominant-baseline="central">v0.40.1</text>
<rect x="207" y="116" width="101" height="20" rx="10" fill="none" stroke="#3fb950"/><text x="258" y="126" font-size="12" fill="#3fb950" text-anchor="middle" dominant-baseline="central">ci ✓ passing</text>
</g></svg>